<svg width="27" height="27" viewBox="0 0 27 27" fill="none" xmlns="http://www.w3.org/2000/svg">
<mask id="mask0_657_928" style="mask-type:luminance" maskUnits="userSpaceOnUse" x="0" y="0" width="27" height="27">
<path fill-rule="evenodd" clip-rule="evenodd" d="M0 0H26.49V26.491H0V0Z" fill="white"/>
</mask>
<g mask="url(#mask0_657_928)">
<path fill-rule="evenodd" clip-rule="evenodd" d="M6.29659 23.0148C7.01144 23.0148 7.68562 23.2859 8.39923 23.5731C12.7709 25.5944 17.9412 24.6749 21.3096 21.3078C25.754 16.8609 25.754 9.62742 21.3096 5.18304C19.1577 3.03111 16.2958 1.84668 13.2491 1.84668C10.2011 1.84668 7.33805 3.03234 5.18735 5.18427C1.81771 8.55145 0.900736 13.7218 2.90354 18.0515C3.19194 18.7651 3.47049 19.4603 3.47049 20.1825C3.47049 20.9035 3.22275 21.6294 3.0046 22.2703C2.82466 22.7979 2.55228 23.594 2.72729 23.7691C2.89861 23.9465 3.69973 23.6668 4.22847 23.4856C4.8632 23.2687 5.58298 23.0197 6.29659 23.0148ZM13.2178 26.4912C11.3346 26.4912 9.43898 26.0931 7.66542 25.2723C7.14284 25.0628 6.65354 24.8656 6.30228 24.8656C5.89803 24.868 5.3545 25.0554 4.82945 25.2366C3.75225 25.6063 2.4113 26.0673 1.41914 25.0788C0.430679 24.0891 0.886702 22.7518 1.25399 21.6759C1.43516 21.1459 1.62127 20.5987 1.62127 20.1846C1.62127 19.8444 1.45735 19.4106 1.20592 18.7857C-1.10254 13.8002 -0.0352035 7.79183 3.88043 3.87866C6.37993 1.37793 9.70643 0 13.2474 0C16.7883 0 20.1161 1.3767 22.6156 3.87743C27.7822 9.04404 27.7822 17.4497 22.6156 22.6163C20.0828 25.1503 16.6725 26.4912 13.2178 26.4912Z" fill="#FDFDFD"/>
</g>
<path fill-rule="evenodd" clip-rule="evenodd" d="M18.1134 14.9904C17.4331 14.9904 16.876 14.4395 16.876 13.7579C16.876 13.0763 17.422 12.5254 18.1023 12.5254H18.1134C18.7937 12.5254 19.3459 13.0763 19.3459 13.7579C19.3459 14.4395 18.7937 14.9904 18.1134 14.9904Z" fill="#FDFDFD"/>
<path fill-rule="evenodd" clip-rule="evenodd" d="M13.172 14.9904C12.4917 14.9904 11.9346 14.4395 11.9346 13.7579C11.9346 13.0763 12.4793 12.5254 13.1609 12.5254H13.172C13.8523 12.5254 14.4045 13.0763 14.4045 13.7579C14.4045 14.4395 13.8523 14.9904 13.172 14.9904Z" fill="#FDFDFD"/>
<path fill-rule="evenodd" clip-rule="evenodd" d="M8.23059 14.9904C7.55025 14.9904 6.99316 14.4395 6.99316 13.7579C6.99316 13.0763 7.53916 12.5254 8.2195 12.5254H8.23059C8.91092 12.5254 9.46308 13.0763 9.46308 13.7579C9.46308 14.4395 8.91092 14.9904 8.23059 14.9904Z" fill="#FDFDFD"/>
</svg>
