<svg width="80" height="80" viewBox="0 0 80 80" fill="none" xmlns="http://www.w3.org/2000/svg">
<g filter="url(#filter0_d_564_780)">
<path d="M10 40C10 23.4315 23.4315 10 40 10C56.5685 10 70 23.4315 70 40C70 56.5685 56.5685 70 40 70C23.4315 70 10 56.5685 10 40Z" fill="#D71818"/>
</g>
<path d="M47.1504 28C45.7899 28.0212 44.459 28.401 43.2922 29.1011C42.1254 29.8011 41.1639 30.7967 40.505 31.9873C39.8461 30.7967 38.8846 29.8011 37.7178 29.1011C36.551 28.401 35.2201 28.0212 33.8596 28C31.6907 28.0942 29.6472 29.043 28.1756 30.6391C26.7041 32.2352 25.924 34.3488 26.0058 36.5183C26.0058 42.0122 31.7886 48.0125 36.6386 52.0807C37.7214 52.9907 39.0906 53.4895 40.505 53.4895C41.9194 53.4895 43.2886 52.9907 44.3714 52.0807C49.2214 48.0125 55.0042 42.0122 55.0042 36.5183C55.086 34.3488 54.3059 32.2352 52.8344 30.6391C51.3628 29.043 49.3193 28.0942 47.1504 28ZM42.8188 50.232C42.1712 50.7774 41.3517 51.0765 40.505 51.0765C39.6583 51.0765 38.8388 50.7774 38.1912 50.232C31.9831 45.0232 28.4224 40.0258 28.4224 36.5183C28.3398 34.9895 28.865 33.49 29.8836 32.347C30.9022 31.2039 32.3314 30.51 33.8596 30.4165C35.3877 30.51 36.8169 31.2039 37.8355 32.347C38.8541 33.49 39.3793 34.9895 39.2967 36.5183C39.2967 36.8387 39.424 37.146 39.6506 37.3726C39.8772 37.5992 40.1845 37.7265 40.505 37.7265C40.8255 37.7265 41.1328 37.5992 41.3594 37.3726C41.586 37.146 41.7133 36.8387 41.7133 36.5183C41.6307 34.9895 42.1559 33.49 43.1745 32.347C44.1931 31.2039 45.6223 30.51 47.1504 30.4165C48.6786 30.51 50.1078 31.2039 51.1264 32.347C52.145 33.49 52.6702 34.9895 52.5876 36.5183C52.5876 40.0258 49.0269 45.0232 42.8188 50.2272V50.232Z" fill="#FDFDFD"/>
<defs>
<filter id="filter0_d_564_780" x="0" y="0" width="80" height="80" filterUnits="userSpaceOnUse" color-interpolation-filters="sRGB">
<feFlood flood-opacity="0" result="BackgroundImageFix"/>
<feColorMatrix in="SourceAlpha" type="matrix" values="0 0 0 0 0 0 0 0 0 0 0 0 0 0 0 0 0 0 127 0" result="hardAlpha"/>
<feOffset/>
<feGaussianBlur stdDeviation="5"/>
<feComposite in2="hardAlpha" operator="out"/>
<feColorMatrix type="matrix" values="0 0 0 0 0.620833 0 0 0 0 0.408715 0 0 0 0 0.454674 0 0 0 0.46 0"/>
<feBlend mode="normal" in2="BackgroundImageFix" result="effect1_dropShadow_564_780"/>
<feBlend mode="normal" in="SourceGraphic" in2="effect1_dropShadow_564_780" result="shape"/>
</filter>
</defs>
</svg>
