<svg width="60" height="60" viewBox="0 0 60 60" fill="none" xmlns="http://www.w3.org/2000/svg">
<rect x="60" y="60" width="60" height="60" rx="30" transform="rotate(-180 60 60)" fill="#1D1B1B"/>
<path d="M32.2976 30L42.5239 19.7748C43.1587 19.14 43.1587 18.1108 42.5239 17.4761C41.8891 16.8413 40.8599 16.8413 40.2252 17.4761L30 27.7023L19.7748 17.4761C19.14 16.8413 18.1108 16.8413 17.4761 17.4761C16.8414 18.1109 16.8413 19.1401 17.4761 19.7748L27.7023 30L17.4761 40.2252C16.8413 40.86 16.8413 41.8892 17.4761 42.5239C18.1109 43.1586 19.1401 43.1587 19.7748 42.5239L30 32.2976L40.2251 42.5239C40.8599 43.1587 41.8891 43.1587 42.5239 42.5239C43.1586 41.8891 43.1586 40.8599 42.5239 40.2252L32.2976 30Z" fill="#FDFDFD"/>
</svg>
