<?xml version="1.0" standalone="no"?>
<!DOCTYPE svg PUBLIC "-//W3C//DTD SVG 20010904//EN"
 "http://www.w3.org/TR/2001/REC-SVG-20010904/DTD/svg10.dtd">
<svg version="1.0" xmlns="http://www.w3.org/2000/svg"
 width="512.000000pt" height="512.000000pt" viewBox="0 0 512.000000 512.000000"
 preserveAspectRatio="xMidYMid meet">

<g transform="translate(0.000000,512.000000) scale(0.100000,-0.100000)"
fill="#000000" stroke="none">
<path d="M1841 5093 c-37 -36 -428 -622 -436 -655 -5 -20 1 -34 25 -61 17 -20
236 -226 486 -458 298 -277 450 -425 442 -430 -7 -3 -35 -10 -63 -14 -27 -3
-90 -18 -138 -31 -275 -77 -483 -199 -687 -404 -250 -250 -392 -540 -440 -897
-17 -127 -8 -369 20 -497 136 -635 633 -1108 1275 -1212 116 -19 354 -19 470
0 642 104 1140 578 1275 1211 28 129 37 370 20 498 -48 357 -190 647 -440 897
-204 205 -412 327 -687 404 -48 13 -110 28 -138 31 -27 4 -56 11 -63 14 -8 5
144 153 442 430 250 232 469 438 486 458 24 27 30 41 25 61 -8 33 -399 619
-436 655 l-29 27 -690 0 -690 0 -29 -27z m587 -131 c-1 -4 -48 -90 -102 -191
-64 -119 -101 -179 -106 -170 -4 8 -49 90 -99 182 -50 93 -91 173 -91 178 0 5
83 9 201 9 110 0 199 -4 197 -8z m662 -2 c0 -8 -183 -353 -195 -367 -1 -3 -47
79 -160 290 l-47 87 201 0 c130 0 201 -4 201 -10z m-1095 -263 c53 -99 95
-181 92 -183 -2 -2 -106 -3 -231 -2 l-226 3 126 189 c69 103 129 184 134 180
4 -5 51 -89 105 -187z m1370 6 l125 -188 -226 -3 c-125 -1 -229 -1 -231 2 -4
4 196 376 203 376 2 0 60 -84 129 -187z m-700 -13 l94 -175 -99 -3 c-55 -1
-145 -1 -199 0 l-100 3 96 178 c53 98 100 176 105 175 5 -2 51 -82 103 -178z
m-384 -669 c60 -179 108 -326 106 -327 -1 -1 -128 115 -282 258 -154 144 -314
292 -355 330 l-74 68 249 -2 248 -3 108 -324z m396 -6 c-62 -184 -114 -335
-117 -335 -5 0 -220 649 -220 664 0 3 101 6 224 6 l224 0 -111 -335z m692 266
c-41 -37 -200 -185 -354 -329 -154 -143 -281 -259 -282 -258 -2 2 192 592 212
644 3 9 63 12 252 12 l247 0 -75 -69z m-699 -941 c345 -31 638 -168 878 -411
108 -110 191 -228 257 -364 64 -133 88 -201 114 -331 105 -518 -90 -1047 -504
-1368 -256 -199 -536 -296 -855 -296 -319 0 -599 97 -855 296 -414 321 -609
850 -504 1368 26 130 50 198 114 331 148 308 427 566 739 685 143 55 262 79
486 99 8 0 67 -4 130 -9z"/>
<path d="M1679 3702 c-479 -243 -848 -683 -993 -1186 -199 -686 -23 -1404 469
-1915 299 -310 664 -500 1110 -578 138 -23 452 -23 590 0 366 64 663 196 940
420 487 393 762 1026 715 1646 -46 613 -350 1143 -850 1484 -120 82 -321 187
-357 187 -58 0 -94 -50 -72 -102 9 -21 31 -38 88 -65 390 -187 692 -488 872
-868 232 -493 226 -1083 -17 -1567 -212 -423 -574 -743 -1019 -902 -321 -114
-701 -131 -1040 -45 -632 160 -1140 667 -1300 1299 -44 177 -58 307 -52 505 4
140 11 207 31 303 117 554 464 1003 968 1254 65 32 122 67 128 78 27 50 -9
110 -67 110 -17 0 -79 -25 -144 -58z"/>
</g>
</svg>
