<svg width="71" height="85" viewBox="0 0 71 85" fill="none" xmlns="http://www.w3.org/2000/svg">
<mask id="mask0_546_403" style="mask-type:luminance" maskUnits="userSpaceOnUse" x="0" y="0" width="71" height="85">
<path fill-rule="evenodd" clip-rule="evenodd" d="M0 0H70.3121V84.3556H0V0Z" fill="white"/>
</mask>
<g mask="url(#mask0_546_403)">
<path fill-rule="evenodd" clip-rule="evenodd" d="M35.1548 6.21405C31.6406 6.21405 9.4697 14.0215 6.91279 16.1557C6.15857 16.9141 6.12956 18.2319 6.29118 27.0547C6.36577 31.3066 6.46938 37.0834 6.46938 45.0815C6.46938 66.635 30.1819 76.2037 35.1507 77.965C40.1153 76.1954 63.8403 66.5728 63.8403 45.0815C63.8403 37.0751 63.9439 31.2941 64.0226 27.0423C64.1801 18.2278 64.1511 16.91 63.3513 16.1143C60.8441 14.0215 38.669 6.21405 35.1548 6.21405ZM35.1561 84.3552C34.8536 84.3552 34.5511 84.3137 34.2568 84.2226C32.8686 83.804 0.254508 73.6012 0.254508 45.0816C0.254508 37.1373 0.150905 31.3895 0.0763116 27.1708C-0.114317 16.6323 -0.155758 14.436 2.56691 11.7174C5.82003 8.45603 30.4567 -0.0020752 35.1561 -0.0020752C39.8514 -0.0020752 64.488 8.45603 67.7494 11.7174C70.468 14.436 70.4265 16.6323 70.2359 27.1583C70.1613 31.377 70.0577 37.1249 70.0577 45.0816C70.0577 73.6012 37.4436 83.804 36.0554 84.2226C35.7611 84.3137 35.4586 84.3552 35.1561 84.3552Z" fill="#474747"/>
</g>
<path fill-rule="evenodd" clip-rule="evenodd" d="M32.2265 51.8804C31.4018 51.8804 30.6103 51.553 30.026 50.9687L22.1854 43.1198C20.9753 41.9055 20.9753 39.933 22.1895 38.7229C23.3996 37.5087 25.3722 37.5087 26.5864 38.7229L32.2265 44.3713L46.1838 30.414C47.398 29.1997 49.3624 29.1997 50.5766 30.414C51.7908 31.6282 51.7908 33.5966 50.5766 34.8108L34.4229 50.9687C33.8427 51.553 33.0512 51.8804 32.2265 51.8804Z" fill="#474747"/>
</svg>
