<?xml version="1.0" standalone="no"?>
<!DOCTYPE svg PUBLIC "-//W3C//DTD SVG 20010904//EN"
 "http://www.w3.org/TR/2001/REC-SVG-20010904/DTD/svg10.dtd">
<svg version="1.0" xmlns="http://www.w3.org/2000/svg"
 width="96.000000pt" height="96.000000pt" viewBox="0 0 96.000000 96.000000"
 preserveAspectRatio="xMidYMid meet">

<g transform="translate(0.000000,96.000000) scale(0.100000,-0.100000)"
fill="#000000" stroke="none">
<path d="M451 857 c-6 -7 -29 -58 -52 -113 -22 -54 -44 -102 -47 -105 -4 -4
-61 -12 -127 -18 -91 -9 -123 -16 -132 -28 -20 -26 -17 -33 44 -87 31 -28 74
-67 95 -86 l39 -35 -27 -122 c-23 -101 -25 -124 -15 -137 21 -25 37 -20 143
44 54 33 104 60 110 60 6 0 55 -27 108 -60 103 -64 120 -69 141 -44 10 13 8
36 -15 137 l-27 122 34 30 c172 154 167 148 145 178 -10 12 -42 19 -133 28
-66 6 -123 14 -127 18 -3 3 -25 51 -47 105 -23 55 -46 106 -52 113 -15 17 -43
17 -58 0z"/>
</g>
</svg>
