<svg width="29" height="27" viewBox="0 0 29 27" fill="none" xmlns="http://www.w3.org/2000/svg">
<path fill-rule="evenodd" clip-rule="evenodd" d="M14.0876 2.16803C13.9561 2.16803 13.6325 2.20415 13.4605 2.54802L10.8223 7.82309C10.4047 8.65676 9.59993 9.23613 8.66946 9.36906L2.763 10.2201C2.3729 10.2764 2.23997 10.5654 2.19952 10.6867C2.1634 10.8038 2.1056 11.1014 2.37434 11.3586L6.64526 15.4619C7.32577 16.1164 7.63497 17.0599 7.47315 17.9831L6.46754 23.7769C6.40542 24.1395 6.63225 24.3505 6.73339 24.4227C6.84031 24.5036 7.12639 24.664 7.48037 24.4791L12.7612 21.7411C13.5934 21.312 14.5846 21.312 15.4139 21.7411L20.6933 24.4776C21.0488 24.6611 21.3348 24.5007 21.4432 24.4227C21.5443 24.3505 21.7712 24.1395 21.709 23.7769L20.7006 17.9831C20.5387 17.0599 20.8479 16.1164 21.5284 15.4619L25.7994 11.3586C26.0695 11.1014 26.0118 10.8023 25.9742 10.6867C25.9352 10.5654 25.8023 10.2764 25.4121 10.2201L19.5057 9.36906C18.5767 9.23613 17.7719 8.65676 17.3543 7.82165L14.7132 2.54802C14.5427 2.20415 14.2191 2.16803 14.0876 2.16803ZM7.14745 26.7293C6.55074 26.7293 5.95836 26.5415 5.45122 26.1716C4.57565 25.5301 4.14654 24.4711 4.33292 23.4048L5.33852 17.611C5.37609 17.3957 5.3024 17.1776 5.14347 17.0244L0.872556 12.9211C0.0865685 12.1684 -0.195173 11.0558 0.137138 10.0228C0.472338 8.97817 1.35946 8.23119 2.4532 8.07515L8.35966 7.22415C8.58795 7.19236 8.78444 7.05221 8.88269 6.85283L11.5224 1.57631C12.0093 0.603939 12.9918 0 14.087 0C15.1821 0 16.1646 0.603939 16.6515 1.57631L19.2927 6.85138C19.3924 7.05221 19.5874 7.19236 19.8143 7.22415L25.7207 8.07515C26.8145 8.23119 27.7016 8.97817 28.0368 10.0228C28.3691 11.0558 28.0859 12.1684 27.2999 12.9211L23.029 17.0244C22.8701 17.1776 22.7978 17.3957 22.8354 17.6096L23.8425 23.4048C24.0274 24.4725 23.5983 25.5316 22.7213 26.1716C21.8327 26.8233 20.6754 26.9114 19.6943 26.3999L14.4164 23.6649C14.2098 23.5579 13.9627 23.5579 13.7561 23.6649L8.47814 26.4014C8.05625 26.621 7.60113 26.7293 7.14745 26.7293Z" fill="#FDFDFD"/>
</svg>
