<svg width="16" height="16" viewBox="0 0 16 16" fill="none" xmlns="http://www.w3.org/2000/svg">
<ellipse cx="7.66303" cy="7.66792" rx="4.99995" ry="4.99995" fill="#EDEDED"/>
<path d="M15.4157 6.57876L13.9817 5.14278V3.99746C13.9817 2.8968 13.087 2.00081 11.9877 2.00081H10.8437L9.40973 0.565494C8.65574 -0.188498 7.34242 -0.188498 6.5891 0.565494L5.15511 2.00081H4.01112C2.91114 2.00081 2.01715 2.89614 2.01715 3.99746V5.14278L0.582494 6.57876C-0.194165 7.35742 -0.194165 8.62341 0.582494 9.40207L2.01648 10.8381V11.9834C2.01648 13.084 2.91114 13.98 4.01046 13.98H5.15445L6.58843 15.4153C6.96509 15.792 7.46642 16 7.99908 16C8.53174 16 9.03241 15.792 9.40907 15.4153L10.8431 13.98H11.987C13.087 13.98 13.981 13.0847 13.981 11.9834V10.8381L15.4157 9.40207C16.1923 8.62341 16.1923 7.35742 15.4157 6.57876ZM12.1344 6.80743L8.76507 10.1374C8.35575 10.5441 7.81642 10.7481 7.27776 10.7481C6.7391 10.7481 6.20244 10.5447 5.79177 10.1394L4.05912 8.47341C3.79779 8.21408 3.79513 7.79275 4.05446 7.53075C4.31446 7.27009 4.73512 7.26676 4.99778 7.52609L6.72976 9.1914C7.03176 9.49073 7.52309 9.4914 7.82575 9.1914L11.1957 5.86077C11.4584 5.60078 11.8797 5.60344 12.139 5.86544C12.3984 6.12744 12.3957 6.5481 12.1344 6.80743Z" fill="#4FA1FF"/>
</svg>
